<?xml version="1.0" standalone="no"?>
<!DOCTYPE svg PUBLIC "-//W3C//DTD SVG 20010904//EN"
 "http://www.w3.org/TR/2001/REC-SVG-20010904/DTD/svg10.dtd">
<svg version="1.0" xmlns="http://www.w3.org/2000/svg"
 width="700.000000pt" height="700.000000pt" viewBox="0 0 700.000000 700.000000"
 preserveAspectRatio="xMidYMid meet">
<metadata>
Created by potrace 1.11, written by Peter Selinger 2001-2013
</metadata>
<g transform="translate(0.000000,700.000000) scale(0.100000,-0.100000)"
fill="#000000" stroke="none">
<path d="M3385 6983 c-789 -28 -1535 -315 -2130 -818 -131 -111 -342 -324
-447 -451 -437 -530 -709 -1188 -778 -1884 -15 -148 -15 -512 0 -660 43 -433
161 -842 353 -1225 180 -360 365 -615 661 -910 186 -185 339 -312 531 -439
481 -318 1020 -508 1600 -567 142 -14 508 -14 650 0 1015 102 1919 623 2513
1448 211 293 405 692 505 1038 245 843 169 1736 -213 2514 -174 354 -361 619
-635 900 -486 498 -1071 825 -1745 975 -258 57 -604 89 -865 79z m435 -584
c223 -24 478 -84 697 -164 152 -56 444 -205 587 -299 682 -454 1135 -1149
1271 -1950 177 -1044 -225 -2098 -1054 -2762 -989 -793 -2370 -855 -3431 -155
-959 633 -1457 1781 -1265 2917 183 1082 953 1965 2003 2297 371 118 792 159
1192 116z"/>
<path d="M3306 4800 c-268 -43 -518 -165 -710 -350 -192 -184 -307 -384 -373
-648 -25 -96 -27 -126 -28 -292 0 -143 4 -204 18 -270 59 -274 179 -492 376
-683 181 -175 382 -282 646 -343 112 -27 404 -27 524 -1 258 56 467 166 652
344 196 190 317 409 376 683 25 119 25 400 0 520 -59 273 -179 492 -375 682
-170 165 -358 270 -590 330 -103 26 -137 30 -287 33 -93 2 -196 0 -229 -5z
m320 -1038 c62 -32 97 -65 129 -124 27 -47 30 -63 30 -138 0 -75 -3 -91 -30
-138 -32 -59 -66 -91 -129 -125 -59 -31 -193 -31 -252 0 -98 52 -153 133 -161
237 -11 139 62 253 194 302 54 20 167 13 219 -14z"/>
</g>
</svg>
