<?xml version="1.0" standalone="no"?>
<!DOCTYPE svg PUBLIC "-//W3C//DTD SVG 20010904//EN"
 "http://www.w3.org/TR/2001/REC-SVG-20010904/DTD/svg10.dtd">
<svg version="1.0" xmlns="http://www.w3.org/2000/svg"
 width="700.000000pt" height="700.000000pt" viewBox="0 0 700.000000 700.000000"
 preserveAspectRatio="xMidYMid meet">
<metadata>
Created by potrace 1.11, written by Peter Selinger 2001-2013
</metadata>
<g transform="translate(0.000000,700.000000) scale(0.100000,-0.100000)"
fill="#000000" stroke="none">
<path d="M3305 6410 c-409 -30 -769 -130 -1123 -309 -626 -318 -1108 -840
-1381 -1494 -288 -692 -288 -1522 0 -2213 388 -933 1217 -1598 2204 -1768 319
-54 671 -54 990 0 909 157 1689 735 2109 1564 490 967 396 2140 -242 3020
-480 662 -1204 1087 -2014 1184 -159 20 -403 27 -543 16z m465 -1624 c254 -58
456 -165 634 -336 192 -183 307 -384 373 -648 25 -96 27 -126 28 -292 0 -142
-4 -205 -18 -270 -55 -257 -169 -473 -345 -654 -178 -182 -384 -299 -639 -363
-99 -25 -124 -28 -303 -28 -179 0 -204 3 -303 28 -244 61 -432 164 -606 331
-187 180 -303 383 -369 645 -24 96 -26 124 -27 296 0 198 5 240 51 394 110
366 397 680 757 826 89 37 208 70 302 85 85 13 386 4 465 -14z"/>
<path d="M3407 3776 c-94 -35 -164 -110 -188 -201 -26 -96 13 -231 84 -291 64
-54 106 -69 197 -69 68 0 93 5 126 22 63 34 97 66 129 125 27 47 30 63 30 138
0 75 -3 91 -30 138 -52 95 -130 143 -240 149 -44 2 -84 -2 -108 -11z"/>
</g>
</svg>
